<?xml version="1.0" encoding="UTF-8" standalone="no"?>
<svg  viewBox="0 0 24 24" version="1.1" xmlns="http://www.w3.org/2000/svg" xmlns:xlink="http://www.w3.org/1999/xlink" xmlns:sketch="http://www.bohemiancoding.com/sketch/ns">
    <!-- Generator: Sketch 3.3.2 (12043) - http://www.bohemiancoding.com/sketch -->
    <title>ic_yoga</title>
    <desc>Created with Sketch.</desc>
    <defs></defs>
    <g id="Page-1" stroke="none" stroke-width="1" fill="none" fill-rule="evenodd" sketch:type="MSPage">
        <g id="ic_yoga" sketch:type="MSArtboardGroup" fill="#FFFFFF">
            <path d="M12,2 C10.895431,2 10,2.8954305 10,4 C10,5.1045695 10.895431,6 12,6 C13.104569,6 14,5.1045695 14,4 C14,2.8954305 13.104569,2 12,2 L12,2 Z M3,7 L3,9 L9,9 L9,15 L9,22 L11,22 L11,15 L13.625,15 L14.8125,16.1875 C14.9125,16.2875 14.8875,16.5 14.6875,16.5 L12,17.1875 L12,19.3125 L15.40625,18.40625 C16.20625,18.20625 16.80625,17.4875 16.90625,16.6875 C17.10625,15.9875 16.8125,15.40625 16.3125,14.90625 L15,13.625 L15,9 L21,9 L21,7 L12,7 L3,7 L3,7 Z" id="Shape" sketch:type="MSShapeGroup"></path>
        </g>
    </g>
</svg>